<svg aria-hidden="true" style="width:0;height:0;position:absolute;overflow:hidden" xmlns="http://www.w3.org/2000/svg"><defs><symbol id="icon-menu" viewBox="0 0 60 34"><path d="M2 0h56a2 2 0 1 1 0 4H2a2 2 0 1 1 0-4zM2 14h56a2 2 0 1 1 0 4H2a2 2 0 1 1 0-4zM2 28h56a2 2 0 1 1 0 4H2a2 2 0 1 1 0-4z"/><symbol id="icon-close-line" viewBox="0 0 32 32"><path d="m17.253 16 7.369-7.369a.886.886 0 0 0-.047-1.207.893.893 0 0 0-1.207-.047l-7.369 7.369L8.63 7.368A.892.892 0 0 0 7.368 8.63l7.378 7.369-7.378 7.369a.891.891 0 0 0-.249.999.881.881 0 0 0 .503.503.897.897 0 0 0 .712-.027.891.891 0 0 0 .288-.222L16 17.252l7.369 7.369a.886.886 0 0 0 1.207-.047.888.888 0 0 0 .047-1.207l-7.369-7.369z"/></symbol></symbol><symbol id="icon-Line" viewBox="0 0 1 32"><path fill="none" stroke="#fd5103" style="stroke:var(--color2,#fd5103)" stroke-width=".78" d="M.395.39v31.223"/></symbol><symbol id="icon-addheart" viewBox="0 0 36 32"><path fill="#fd5103" style="fill:var(--color1,#fd5103)" d="m18.133 32-2.628-2.302C6.165 21.555 0 16.183 0 9.591 0 4.219 4.388 0 9.973 0c3.155 0 6.185 1.412 8.16 3.644A11.019 11.019 0 0 1 26.291 0h.002c5.585 0 9.973 4.22 9.973 9.591 0 6.592-6.165 11.962-15.505 20.124L18.133 32z"/><symbol id="icon-search" viewBox="0 0 30 32"><path d="M12.8 26.4a12.722 12.722 0 0 0 7.835-2.701l7.034 7.034 2.262-2.262-7.034-7.034a12.72 12.72 0 0 0 2.702-7.837c0-7.058-5.742-12.8-12.8-12.8s-12.8 5.742-12.8 12.8c0 7.058 5.742 12.8 12.8 12.8zm0-22.4c5.294 0 9.6 4.306 9.6 9.6s-4.306 9.6-9.6 9.6-9.6-4.306-9.6-9.6S7.506 4 12.8 4z"/></symbol><symbol id="icon-right-arrow" viewBox="0 0 32 32"><path d="m17.563 16-6.6-6.6 1.885-1.885 8.486 8.486-8.486 8.486-1.885-1.885 6.6-6.6z"/></symbol><symbol id="icon-Heart-mobile" viewBox="0 0 36 32"><path fill="#fd5103" style="fill:var(--color2,#fd5103)" d="m17.885 32.007-2.592-2.303C6.081 21.56 0 16.186 0 9.593 0 4.222 4.328.001 9.837.001c3.112 0 6.1 1.412 8.048 3.645A10.804 10.804 0 0 1 25.931.001h.003c5.509 0 9.837 4.221 9.837 9.592 0 6.593-6.081 11.966-15.293 20.128l-2.592 2.286z"/><path fill="#fcfcfc" style="fill:var(--color1,#fcfcfc)" d="m17.885 28.637-2.099-1.817C8.331 20.391 3.407 16.149 3.407 10.943c0-4.24 3.502-7.572 7.964-7.572 2.517 0 4.936 1.115 6.514 2.877 1.578-1.762 3.997-2.877 6.514-2.877 4.462 0 7.964 3.332 7.964 7.572 0 5.206-4.921 9.447-12.379 15.89l-2.099 1.805z"/></symbol><symbol id="icon-heart" viewBox="0 0 35 32"><path fill="#fd5103" style="fill:var(--color2,#fd5103)" d="m17.686 32.004-2.565-2.303C6.014 21.557 0 16.187 0 9.593 0 4.22 4.28 0 9.727 0c3.077 0 6.03 1.413 7.959 3.645A10.636 10.636 0 0 1 25.641 0h.003c5.447 0 9.727 4.221 9.727 9.593 0 6.593-6.013 11.964-15.121 20.127l-2.565 2.284z"/><path fill="#fcfcfc" style="fill:var(--color1,#fcfcfc)" d="m17.686 28.636-2.075-1.817C8.237 20.39 3.369 16.148 3.369 10.944c0-4.241 3.465-7.573 7.874-7.573 2.491 0 4.881 1.115 6.443 2.877a8.7 8.7 0 0 1 6.441-2.877h.002c4.41 0 7.875 3.332 7.875 7.573 0 5.205-4.868 9.444-12.242 15.889l-2.075 1.804z"/></symbol><symbol id="icon-toggle-Light" viewBox="0 0 64 32"><path fill="#fff" style="fill:var(--color3,#fff)" d="M16.002.483h32.003c8.571 0 15.519 6.948 15.519 15.519V16c0 8.571-6.948 15.519-15.519 15.519H16.002C7.431 31.519.483 24.571.483 16v.002C.483 7.431 7.431.483 16.002.483z"/><path fill="#fd5103" style="fill:var(--color2,#fd5103)" d="M27.204 16.002c0 7.07-5.732 12.802-12.802 12.802S1.6 23.072 1.6 16.002C1.6 8.932 7.332 3.2 14.402 3.2s12.802 5.732 12.802 12.802z"/><path fill="none" stroke="#fd5103" style="stroke:var(--color2,#fd5103)" stroke-width=".968" d="M16.002.483h32.003c8.571 0 15.519 6.948 15.519 15.519V16c0 8.571-6.948 15.519-15.519 15.519H16.002C7.431 31.519.483 24.571.483 16v.002C.483 7.431 7.431.483 16.002.483z"/></symbol><symbol id="icon-toggle-Dark" viewBox="0 0 64 32"><path fill="#fd5103" style="fill:var(--color2,#fd5103)" d="M16.002.8h32.004c8.396 0 15.202 6.806 15.202 15.202s-6.806 15.202-15.202 15.202H16.002C7.606 31.204.8 24.398.8 16.002S7.606.8 16.002.8z"/><path fill="#fff" style="fill:var(--color3,#fff)" d="M60.808 16.002c0 7.07-5.732 12.802-12.802 12.802s-12.802-5.732-12.802-12.802c0-7.07 5.732-12.802 12.802-12.802s12.802 5.732 12.802 12.802z"/><path fill="none" stroke="#fff" style="stroke:var(--color3,#fff)" stroke-width="1.6" d="M16.002.8h32.004c8.396 0 15.202 6.806 15.202 15.202s-6.806 15.202-15.202 15.202H16.002C7.606 31.204.8 24.398.8 16.002S7.606.8 16.002.8z"/></symbol><symbol id="icon-dagger" viewBox="0 0 32 32"><path fill="#fcfcfc" style="fill:var(--color1,#fcfcfc)" d="m17.258 16.005 7.372-7.371a.888.888 0 0 0-1.255-1.252l.001-.001-7.372 7.371-7.37-7.38a.893.893 0 1 0-1.263 1.261l.001.001 7.38 7.372-7.38 7.371a.889.889 0 0 0 .567 1.576.887.887 0 0 0 .685-.322l.001-.001 7.38-7.371 7.371 7.372a.889.889 0 0 0 1.252-1.255l.001.001-7.371-7.372z"/></symbol><symbol id="icon-down-arrow" viewBox="0 0 32 32"><path d="m7.791 12.791 7.543 7.543 7.543-7.543-.943-.943-6.6 6.6-6.6-6.6-.943.943z"/></symbol><symbol id="icon-arrow_left" viewBox="0 0 32 32"><path d="m14.546 16.667 6.788 6.742-1.939 1.925-8.728-8.667L19.395 8l1.939 1.925-6.788 6.741z"/></symbol><symbol id="icon-arrow_right" viewBox="0 0 32 32"><path d="m17.751 16.667-6.788-6.742L12.902 8l8.728 8.667-8.728 8.667-1.939-1.925 6.788-6.741z"/></symbol><symbol id="icon-three_points" viewBox="0 0 104 32"><path fill="#fe7031" style="fill:var(--color1,#fe7031)" d="M16.776 25.075c-3.418 0-6.363-1.153-8.836-3.458-2.393-2.393-3.586-5.419-3.586-9.093S5.555 5.905 7.94 3.688C10.421 1.383 13.359.23 16.776.23c3.498 0 6.443 1.153 8.836 3.458 2.393 2.217 3.586 5.163 3.586 8.836s-1.201 6.699-3.586 9.093a12.205 12.205 0 0 1-8.852 3.458h.016zm33.521 0c-3.418 0-6.363-1.153-8.836-3.458-2.401-2.393-3.594-5.419-3.594-9.093s1.201-6.619 3.594-8.836C43.934 1.383 46.88.23 50.297.23c3.498 0 6.443 1.153 8.836 3.458 2.385 2.217 3.578 5.163 3.578 8.836s-1.193 6.699-3.578 9.093a12.205 12.205 0 0 1-8.852 3.458h.016zm33.513 0c-3.418 0-6.363-1.153-8.836-3.458-2.393-2.393-3.586-5.419-3.586-9.093s1.201-6.619 3.586-8.836C77.455 1.383 80.393.23 83.81.23c3.498 0 6.443 1.153 8.836 3.458 2.393 2.217 3.586 5.163 3.586 8.836s-1.201 6.699-3.586 9.093a12.205 12.205 0 0 1-8.852 3.458h.016z"/></symbol><symbol id="icon-avatar" viewBox="0 0 31 32"><path fill="#fd5103" style="fill:var(--color1,#fd5103)" d="M15.543.762C7.132.762.305 7.589.305 16s6.827 15.238 15.238 15.238S30.781 24.411 30.781 16 23.954.762 15.543.762zm0 6.095c2.941 0 5.333 2.392 5.333 5.333s-2.392 5.333-5.333 5.333c-2.941 0-5.333-2.392-5.333-5.333s2.392-5.333 5.333-5.333zm0 21.334c-3.093 0-6.751-1.25-9.356-4.389a15.158 15.158 0 0 1 18.712 0c-2.606 3.139-6.263 4.389-9.356 4.389z"/></symbol><symbol id="icon-signout" viewBox="0 0 32 32"><path fill="#fd5103" style="fill:var(--color1,#fd5103)" d="M12 16H2v-4h10V8l6 6-6 6zM32 0v26l-12 6v-6H8v-8h2v6h10V6l8-4H10v8H8V0z"/></symbol></symbol></defs></svg>