<svg aria-hidden="true" style="position: absolute; width: 0; height: 0; overflow: hidden;" version="1.1" xmlns="http://www.w3.org/2000/svg" xmlns:xlink="http://www.w3.org/1999/xlink">
<defs>
<symbol id="icon-menu" viewBox="0 0 60 34">
<path d="M2 0h56c1.105 0 2 0.895 2 2s-0.895 2-2 2h-56c-1.105 0-2-0.895-2-2s0.895-2 2-2z"></path>
<path d="M2 14h56c1.105 0 2 0.895 2 2s-0.895 2-2 2h-56c-1.105 0-2-0.895-2-2s0.895-2 2-2z"></path>
<path d="M2 28h56c1.105 0 2 0.895 2 2s-0.895 2-2 2h-56c-1.105 0-2-0.895-2-2s0.895-2 2-2z"></path>
<symbol id="icon-close-line" viewBox="0 0 32 32">
<path d="M17.253 16l7.369-7.369c0.146-0.17 0.222-0.389 0.213-0.613s-0.101-0.436-0.26-0.594-0.37-0.251-0.594-0.26c-0.224-0.009-0.442 0.067-0.613 0.213l-7.369 7.369-7.369-7.378c-0.167-0.167-0.394-0.261-0.631-0.261s-0.464 0.094-0.631 0.261c-0.167 0.167-0.261 0.394-0.261 0.631s0.094 0.464 0.261 0.631l7.378 7.369-7.378 7.369c-0.093 0.080-0.169 0.178-0.222 0.288s-0.083 0.23-0.088 0.353 0.016 0.244 0.061 0.358c0.045 0.114 0.112 0.218 0.199 0.304s0.19 0.154 0.304 0.199 0.236 0.065 0.359 0.061c0.122-0.005 0.243-0.035 0.353-0.088s0.208-0.129 0.288-0.222l7.378-7.369 7.369 7.369c0.17 0.146 0.389 0.222 0.613 0.213s0.436-0.101 0.594-0.26 0.251-0.371 0.26-0.594c0.009-0.224-0.067-0.442-0.213-0.613l-7.369-7.369z"></path>
</symbol>
</symbol>
<symbol id="icon-Line" viewBox="0 0 1 32">
<path fill="none" stroke="#fd5103" style="stroke: var(--color2, #fd5103)" stroke-linejoin="miter" stroke-linecap="butt" stroke-miterlimit="4" stroke-width="0.7805" d="M0.395 0.39v31.223"></path>
</symbol>
<symbol id="icon-addheart" viewBox="0 0 36 32">
<path fill="#fd5103" style="fill: var(--color1, #fd5103)" d="M18.133 32l-2.628-2.302c-9.34-8.143-15.505-13.515-15.505-20.107 0-5.372 4.388-9.591 9.973-9.591 3.155 0 6.185 1.412 8.16 3.644 2.021-2.233 4.926-3.633 8.158-3.644h0.002c5.585 0 9.973 4.22 9.973 9.591 0 6.592-6.165 11.962-15.505 20.124l-2.628 2.285z"></path>
<symbol id="icon-search" viewBox="0 0 30 32">
<path d="M12.8 26.4c2.84-0.001 5.598-0.951 7.835-2.701l7.034 7.034 2.262-2.262-7.034-7.034c1.75-2.237 2.702-4.996 2.702-7.837 0-7.058-5.742-12.8-12.8-12.8s-12.8 5.742-12.8 12.8c0 7.058 5.742 12.8 12.8 12.8zM12.8 4c5.294 0 9.6 4.306 9.6 9.6s-4.306 9.6-9.6 9.6c-5.294 0-9.6-4.306-9.6-9.6s4.306-9.6 9.6-9.6z"></path>
</symbol>
<symbol id="icon-right-arrow" viewBox="0 0 32 32">
<path d="M17.563 16l-6.6-6.6 1.885-1.885 8.486 8.486-8.486 8.486-1.885-1.885 6.6-6.6z"></path>
</symbol>
<symbol id="icon-Heart-mobile" viewBox="0 0 36 32">
<path fill="#fd5103" style="fill: var(--color2, #fd5103)" d="M17.885 32.007l-2.592-2.303c-9.212-8.144-15.293-13.518-15.293-20.111 0-5.371 4.328-9.592 9.837-9.592 3.112 0 6.1 1.412 8.048 3.645 1.981-2.228 4.849-3.629 8.046-3.645h0.003c5.509 0 9.837 4.221 9.837 9.592 0 6.593-6.081 11.966-15.293 20.128l-2.592 2.286z"></path>
<path fill="#fcfcfc" style="fill: var(--color1, #fcfcfc)" d="M17.885 28.637l-2.099-1.817c-7.455-6.429-12.379-10.671-12.379-15.877 0-4.24 3.502-7.572 7.964-7.572 2.517 0 4.936 1.115 6.514 2.877 1.578-1.762 3.997-2.877 6.514-2.877 4.462 0 7.964 3.332 7.964 7.572 0 5.206-4.921 9.447-12.379 15.89l-2.099 1.805z"></path>
</symbol>
<symbol id="icon-heart" viewBox="0 0 35 32">
<path fill="#fd5103" style="fill: var(--color2, #fd5103)" d="M17.686 32.004l-2.565-2.303c-9.107-8.144-15.121-13.514-15.121-20.108 0-5.373 4.28-9.593 9.727-9.593 3.077 0 6.030 1.413 7.959 3.645 1.949-2.223 4.788-3.625 7.955-3.645l0.003-0c5.447 0 9.727 4.221 9.727 9.593 0 6.593-6.013 11.964-15.121 20.127l-2.565 2.284z"></path>
<path fill="#fcfcfc" style="fill: var(--color1, #fcfcfc)" d="M17.686 28.636l-2.075-1.817c-7.374-6.429-12.242-10.671-12.242-15.875 0-4.241 3.465-7.573 7.874-7.573 2.491 0 4.881 1.115 6.443 2.877 1.595-1.763 3.889-2.868 6.441-2.877h0.002c4.41 0 7.875 3.332 7.875 7.573 0 5.205-4.868 9.444-12.242 15.889l-2.075 1.804z"></path>
</symbol>
<symbol id="icon-toggle-Light" viewBox="0 0 64 32">
<path fill="#fff" style="fill: var(--color3, #fff)" d="M16.002 0.483h32.003c8.571 0 15.519 6.948 15.519 15.519v-0.002c0 8.571-6.948 15.519-15.519 15.519h-32.003c-8.571 0-15.519-6.948-15.519-15.519v0.002c0-8.571 6.948-15.519 15.519-15.519z"></path>
<path fill="#fd5103" style="fill: var(--color2, #fd5103)" d="M27.204 16.002c0 7.070-5.732 12.802-12.802 12.802s-12.802-5.732-12.802-12.802c0-7.070 5.732-12.802 12.802-12.802s12.802 5.732 12.802 12.802z"></path>
<path fill="none" stroke="#fd5103" style="stroke: var(--color2, #fd5103)" stroke-linejoin="miter" stroke-linecap="butt" stroke-miterlimit="4" stroke-width="0.968" d="M16.002 0.483h32.003c8.571 0 15.519 6.948 15.519 15.519v-0.002c0 8.571-6.948 15.519-15.519 15.519h-32.003c-8.571 0-15.519-6.948-15.519-15.519v0.002c0-8.571 6.948-15.519 15.519-15.519z"></path>
</symbol>
<symbol id="icon-toggle-Dark" viewBox="0 0 64 32">
<path fill="#fd5103" style="fill: var(--color2, #fd5103)" d="M16.002 0.8h32.004c8.396 0 15.202 6.806 15.202 15.202s-6.806 15.202-15.202 15.202h-32.004c-8.396 0-15.202-6.806-15.202-15.202s6.806-15.202 15.202-15.202z"></path>
<path fill="#fff" style="fill: var(--color3, #fff)" d="M60.808 16.002c0 7.070-5.732 12.802-12.802 12.802s-12.802-5.732-12.802-12.802c0-7.070 5.732-12.802 12.802-12.802s12.802 5.732 12.802 12.802z"></path>
<path fill="none" stroke="#fff" style="stroke: var(--color3, #fff)" stroke-linejoin="miter" stroke-linecap="butt" stroke-miterlimit="4" stroke-width="1.6" d="M16.002 0.8h32.004c8.396 0 15.202 6.806 15.202 15.202s-6.806 15.202-15.202 15.202h-32.004c-8.396 0-15.202-6.806-15.202-15.202s6.806-15.202 15.202-15.202z"></path>
</symbol>
<symbol id="icon-dagger" viewBox="0 0 32 32">
<path fill="#fcfcfc" style="fill: var(--color1, #fcfcfc)" d="M17.258 16.005l7.372-7.371c0.138-0.156 0.223-0.362 0.223-0.588 0-0.491-0.398-0.888-0.888-0.888-0.226 0-0.433 0.085-0.59 0.224l0.001-0.001-7.372 7.371-7.37-7.38c-0.164-0.18-0.399-0.292-0.661-0.292-0.493 0-0.893 0.4-0.893 0.893 0 0.261 0.112 0.496 0.291 0.66l0.001 0.001 7.38 7.372-7.38 7.371c-0.198 0.164-0.323 0.411-0.323 0.686 0 0.492 0.399 0.89 0.89 0.89 0.275 0 0.522-0.125 0.685-0.322l0.001-0.001 7.38-7.371 7.371 7.372c0.154 0.133 0.357 0.214 0.578 0.214 0.491 0 0.889-0.398 0.889-0.889 0-0.222-0.081-0.424-0.215-0.58l0.001 0.001-7.371-7.372z"></path>
</symbol>
<symbol id="icon-down-arrow" viewBox="0 0 32 32">
<path d="M7.791 12.791l7.543 7.543 7.543-7.543-0.943-0.943-6.6 6.6-6.6-6.6-0.943 0.943z"></path>
</symbol>
<symbol id="icon-arrow_left" viewBox="0 0 32 32">
<path d="M14.546 16.667l6.788 6.742-1.939 1.925-8.728-8.667 8.728-8.667 1.939 1.925-6.788 6.741z"></path>
</symbol>
<symbol id="icon-arrow_right" viewBox="0 0 32 32">
<path d="M17.751 16.667l-6.788-6.742 1.939-1.925 8.728 8.667-8.728 8.667-1.939-1.925 6.788-6.741z"></path>
</symbol>
<symbol id="icon-three_points" viewBox="0 0 104 32">
<path fill="#fe7031" style="fill: var(--color1, #fe7031)" d="M16.776 25.075c-3.418 0-6.363-1.153-8.836-3.458-2.393-2.393-3.586-5.419-3.586-9.093s1.201-6.619 3.586-8.836c2.481-2.305 5.419-3.458 8.836-3.458 3.498 0 6.443 1.153 8.836 3.458 2.393 2.217 3.586 5.163 3.586 8.836s-1.201 6.699-3.586 9.093c-2.203 2.141-5.213 3.462-8.532 3.462-0.107 0-0.214-0.001-0.32-0.004l0.016 0zM50.297 25.075c-3.418 0-6.363-1.153-8.836-3.458-2.401-2.393-3.594-5.419-3.594-9.093s1.201-6.619 3.594-8.836c2.473-2.305 5.419-3.458 8.836-3.458 3.498 0 6.443 1.153 8.836 3.458 2.385 2.217 3.578 5.163 3.578 8.836s-1.193 6.699-3.578 9.093c-2.203 2.141-5.213 3.462-8.532 3.462-0.107 0-0.214-0.001-0.32-0.004l0.016 0zM83.81 25.075c-3.418 0-6.363-1.153-8.836-3.458-2.393-2.393-3.586-5.419-3.586-9.093s1.201-6.619 3.586-8.836c2.481-2.305 5.419-3.458 8.836-3.458 3.498 0 6.443 1.153 8.836 3.458 2.393 2.217 3.586 5.163 3.586 8.836s-1.201 6.699-3.586 9.093c-2.203 2.141-5.213 3.462-8.532 3.462-0.107 0-0.214-0.001-0.32-0.004l0.016 0z"></path>
</symbol>
</defs>
</svg>
